<?xml version="1.0" encoding="UTF-8"?>
<svg width="666px" height="472px" viewBox="0 0 666 472" version="1.1" xmlns="http://www.w3.org/2000/svg" xmlns:xlink="http://www.w3.org/1999/xlink">
    <title>Slice 1</title>
    <g id="页面-1" stroke="none" stroke-width="1" fill="none" fill-rule="evenodd">
        <g id="网页" fill="#FFFFFF" fill-rule="nonzero">
            <path d="M605,393 L605,31.2715708 C605,14.0295891 591.026558,0.0522012027 573.789443,0.0522012027 L481.302161,0.0522012027 C477.548288,-0.334575085 473.901871,1.45065922 471.904313,4.6532554 C469.906754,7.85585158 469.906754,11.9167538 471.904313,15.1193499 C473.901871,18.3219461 477.548288,20.1071804 481.302161,19.7204041 L574.205584,19.7204041 C577.240376,19.7192327 580.146582,20.9460943 582.262909,23.1218227 C584.379237,25.2975512 585.525684,28.237093 585.441384,31.2715708 L585.441384,393 L605,393 Z M80.9747561,393 L80.9747561,31.2715708 C80.8904561,28.237093 82.036904,25.2975512 84.1532314,23.1218227 C86.2695588,20.9460943 89.1757645,19.7192327 92.2105565,19.7204041 L441.97686,19.7204041 C444.58862,19.7205518 447.091922,18.6756711 448.928918,16.8186083 C450.765914,14.9615454 451.783952,12.44662 451.756721,9.83427042 C451.756721,4.43178295 447.377822,0.0522012027 441.97686,0.0522012027 L92.2105565,0.0522012027 C74.9734421,0.0522012027 61,14.0295891 61,31.2715708 L61,393 L80.9747561,393 Z" id="形状"></path>
            <path d="M561.9375,70.5599999 C561.9375,55.3390322 549.591052,43 534.360938,43 L131.11875,43 C116.092212,43.2833996 104.0625,55.539814 104.0625,70.5599999 L104.0625,350.32 C104.0625,365.540968 116.408948,377.88 131.639062,377.88 L534.465,377.88 C549.65446,377.822715 561.9375,365.500445 561.9375,350.32 L561.9375,70.5599999 Z M542.269687,350.32 C542.213623,354.661838 538.705385,358.167969 534.360938,358.224 L131.11875,358.224 C126.774302,358.167969 123.266065,354.661838 123.21,350.32 L123.21,70.5599999 C123.375897,66.2995856 126.852867,62.9161473 131.11875,62.8639999 L534.465,62.8639999 C538.809447,62.9200308 542.317685,66.4261617 542.37375,70.7679998 L542.269687,350.32 Z M626.352187,392.752 L39.6478124,392.752 C17.7746608,392.809151 0.0571849685,410.515985 0,432.376 C0.0571849685,454.236015 17.7746608,471.942849 39.6478124,472 L129.141563,472 C133.889267,471.571887 137.536349,467.612004 137.570625,462.848 C137.570949,457.833828 133.534049,453.752979 128.517187,453.696 L41.6250001,453.696 C29.785741,453.696 20.1881252,444.104149 20.1881252,432.272 C20.1881252,420.439852 29.785741,410.848 41.6250001,410.848 L625.415625,410.848 C637.254883,410.848001 646.852498,420.439852 646.852498,432.272 C646.852498,444.104148 637.254883,453.695999 625.415625,453.696 L190.330312,453.696 C185.272765,453.696 181.172813,457.79349 181.172813,462.848 C181.172813,467.90251 185.272765,472 190.330312,472 L626.352187,472 C648.225339,471.94285 665.942815,454.236015 666,432.376 C665.942815,410.515985 648.225339,392.80915 626.352187,392.752 Z" id="形状"></path>
            <path d="M152.853261,292 L181.146739,292 C184.382246,292 186,293.657848 186,296.973545 L186,307.026455 C186,310.342152 184.382246,312 181.146739,312 L152.853261,312 C149.617754,312 148,310.342152 148,307.026455 L148,296.973545 C148,293.657849 149.617754,292 152.853261,292 Z" id="路径"></path>
        </g>
        <g id="海象" transform="translate(140, 72)" fill="#FFFFFF" fill-rule="nonzero">
            <path d="M297.1709,267 C294.746431,267 292.405565,266.080386 290.566313,264.40836 C288.141845,262.151125 286.971411,258.890675 287.556628,255.630225 L287.64023,255.212219 L298.424936,227.790997 C299.511766,225.032154 299.177357,222.022508 297.50531,219.598071 C295.833262,217.173633 293.157987,215.752412 290.231904,215.66881 L192.918749,215.167203 C190.577883,215.167203 188.738631,213.244373 188.738631,210.987138 C188.738631,208.646302 190.661485,206.807074 192.918749,206.807074 L290.231904,207.308682 C295.916865,207.392283 301.267416,210.151125 304.360704,214.916399 C307.537594,219.598071 308.206412,225.533762 306.116353,230.884244 L295.74966,257.385852 C295.74966,257.88746 296.000467,258.221865 296.167672,258.389068 C296.418479,258.55627 296.836491,258.890675 297.50531,258.723473 L325.762909,251.282958 C328.020173,250.697749 330.277437,252.03537 330.862654,254.292605 C331.44787,256.549839 330.110232,258.807074 327.852969,259.392283 L299.595369,266.832797 C298.842947,266.916399 298.006924,267 297.1709,267 Z M15.1801183,236.819936 C12.8392521,236.819936 11,234.980707 11,232.639871 C11,230.299035 12.8392521,228.459807 15.1801183,228.459807 C27.4696662,228.459807 37.4183478,218.511254 37.4183478,206.221865 L37.4183478,167.180064 C37.4183478,164.839228 39.2575998,163 41.5984661,163 C43.9393324,163 45.7785844,164.839228 45.7785844,167.180064 L45.7785844,206.221865 C45.7785844,223.109325 32.0677963,236.819936 15.1801183,236.819936 Z" id="形状"></path>
            <path d="M38.5246155,247 C28.7527426,247 19.3984712,243.803371 11.631085,237.830723 C10.7503023,237.154418 10.1750735,236.15104 10.0338378,235.044629 C9.89260213,233.938217 10.1971218,232.820915 10.8794025,231.942197 C12.2992473,230.091517 14.888376,229.75503 16.7258222,231.1851 C23.0733635,236.064165 30.5901888,238.671941 38.6081358,238.671941 C58.4859627,238.671941 74.6888972,222.352311 74.6888972,202.33132 C74.6888972,199.97591 76.5263434,198.12523 78.8649113,198.12523 C81.2034791,198.12523 83.0409253,199.97591 83.0409253,202.33132 C82.957405,226.894888 62.9960579,247 38.5246155,247 L38.5246155,247 Z M232.709269,241.447961 C200.971562,241.447961 179.757411,231.1851 167.229369,222.099945 C152.195718,211.16411 146.015217,199.639423 145.764656,199.218814 C144.678893,197.19989 145.430575,194.592114 147.518582,193.498531 C149.523069,192.404947 152.112198,193.162043 153.114441,195.265089 C153.197961,195.34921 158.79382,205.780315 172.407626,215.538444 C185.019188,224.539478 207.235583,234.802338 241.562419,232.699293 C243.900987,232.531049 245.821953,234.297607 245.988994,236.653018 C246.156034,239.008428 244.402108,240.94323 242.06354,241.111474 C238.97329,241.363839 235.799519,241.447961 232.709269,241.447961 L232.709269,241.447961 Z" id="形状"></path>
            <path d="M222.736198,259 C179.04489,259 146.464373,247.740935 125.746506,237.315874 C99.4314727,224.138598 86.2321864,209.710314 85.2297089,208.626108 C57.9957384,179.68614 46.8849467,150.746172 46.8849467,108.712329 L46.8849467,77.020145 C46.8849467,67.8460919 39.3663659,60.3400483 30.1769893,60.3400483 C27.8378753,60.3400483 26,58.5052377 26,56.1700242 C26,53.8348106 27.8378753,52 30.1769893,52 C43.9610542,52 55.2389254,63.2590653 55.2389254,77.020145 L55.2389254,108.712329 C55.2389254,148.410959 65.6813988,175.682917 91.3281134,202.954875 L91.4116532,203.038276 C91.495193,203.205077 104.36032,217.299758 129.923495,230.060032 C153.481715,241.8195 192.912494,254.663175 247.380435,249.492345 C249.719549,249.242143 251.724504,250.910153 251.975124,253.245367 C252.225743,255.49718 250.554947,257.582192 248.215833,257.832393 C239.277076,258.582998 230.756018,259 222.736198,259 L222.736198,259 Z" id="路径"></path>
            <path d="M355.50905,258 C349.578331,258 343.814674,255.660658 339.721642,251.232617 L327.609609,238.700425 C326.022515,237.029466 326.106046,234.355932 327.69314,232.768521 C329.363765,231.18111 332.036766,231.264658 333.62386,232.852069 L345.735893,245.467809 C349.411268,249.311014 354.757269,250.564233 359.852676,248.893274 L373.718866,244.214589 C375.222428,243.713302 376.224803,242.460083 376.558928,240.872672 C376.725991,240.12074 376.809522,238.282685 374.971834,236.86237 L306.392668,181.052344 C291.858229,169.272084 274.567258,161.502126 256.273911,158.577948 L170.988493,144.792537 L170.570837,144.625441 C153.530459,138.944181 139.580739,126.41199 132.313519,110.203689 L97.6480451,33.0889373 C90.0467003,16.1287048 71.9204165,6.10295165 53.4600076,8.69293789 L27.8159102,15.1261295 C16.4556586,17.9667596 8.43665745,28.1596086 8.35312619,39.8563207 L19.128659,117.138168 C19.462784,119.393962 17.87569,121.566209 15.5368147,121.816853 C13.2814706,122.151045 11.1096578,120.563634 10.859064,118.224291 L0,40.3576083 L0,40.1905124 C0,24.4834991 10.6084703,10.8651844 25.8111599,7.10552697 L52.1235074,0.505239467 C74.2592918,-2.66958237 96.1444824,9.36132143 105.332921,29.7470195 L139.998395,106.861771 C146.26324,120.897825 158.291741,131.67551 172.909712,136.688387 L257.52688,150.306701 C277.240258,153.481523 295.951261,161.919865 311.655138,174.619153 L380.234304,230.429179 C383.826148,233.269809 385.580305,237.781398 384.828523,242.376535 C384.076742,246.971672 380.819023,250.731329 376.475397,252.235192 L362.609208,256.913877 C360.270332,257.665808 357.847926,258 355.50905,258 Z" id="路径"></path>
        </g>
        <g id="搜索" transform="translate(365, 66)" fill="#FFFFFF" fill-rule="nonzero">
            <path d="M66.7551101,12.5161807 C94.5002027,12.5606241 117.702819,33.6114684 120.435606,61.2203298 C123.171001,88.8291915 104.547368,114.023451 77.3524839,119.507153 C50.1549918,124.993462 23.223477,108.98825 15.0433684,82.4771715 C6.86325976,55.9660934 20.089116,27.5697483 45.6464142,16.7744435 C52.3245665,13.9496094 59.5040723,12.5013248 66.7551101,12.5161807 M66.7551101,0 C29.8885576,0 0,29.8878704 0,66.7535753 C0,103.61928 29.8885576,133.507151 66.7551101,133.507151 C103.621663,133.507151 133.51022,103.61928 133.51022,66.7535753 C133.51022,29.8878704 103.621663,0 66.7551101,0 L66.7551101,0 Z M153.745363,159.999988 C152.084413,160.003246 150.491107,159.342279 149.320229,158.164252 L117.611552,126.456304 C115.241224,123.999981 115.275123,120.096462 117.687173,117.68186 C120.101831,115.267258 124.00544,115.23336 126.459212,117.60624 L158.167889,149.314189 C159.956647,151.10409 160.491736,153.794908 159.523852,156.132962 C158.557974,158.47273 156.276704,159.999375 153.745363,159.999988 L153.745363,159.999988 Z" id="形状"></path>
        </g>
    </g>
</svg>